HIERARCHY
ROOT Hips
{
  OFFSET 5.72205e-005 65.662 3.42586
  CHANNELS 6 Xposition Yposition Zposition Zrotation Xrotation Yrotation
  JOINT Chest
  {
    OFFSET 0 8.7983 -4.7612
    CHANNELS 3 Zrotation Xrotation Yrotation
    JOINT Chest2
    {
      OFFSET 0 8.0291 0.4195
      CHANNELS 3 Zrotation Xrotation Yrotation
      JOINT Chest3
      {
        OFFSET 0 9.9351 -2.2114
        CHANNELS 3 Zrotation Xrotation Yrotation
        JOINT Neck
        {
          OFFSET 0 22.3885 -0.4656
          CHANNELS 3 Zrotation Xrotation Yrotation
          JOINT Head
          {
            OFFSET -0.0001 12.643 3.4389
            CHANNELS 3 Zrotation Xrotation Yrotation
            End Site
            {
              OFFSET 0.0001 17.6655 0.5274
            }
          }
        }
        JOINT LeftCollar
        {
          OFFSET 2.2603 21.606 7.4023
          CHANNELS 3 Zrotation Xrotation Yrotation
          JOINT LeftShoulder
          {
            OFFSET 13.5163 -1.1332 -5.0146
            CHANNELS 3 Zrotation Xrotation Yrotation
            JOINT LeftElbow
            {
              OFFSET -0.0995 -28.05 -0.2431
              CHANNELS 3 Zrotation Xrotation Yrotation
              JOINT LeftWrist
              {
                OFFSET 0.0679 -23.3996 -0.1402
                CHANNELS 3 Zrotation Xrotation Yrotation
                JOINT LeftFinger1
                {
                  OFFSET 0.7932 -9.069 2.5189
                  CHANNELS 3 Zrotation Xrotation Yrotation
                  JOINT LeftFinger11
                  {
                    OFFSET -0.8272 -3.3923 0.5977
                    CHANNELS 3 Zrotation Xrotation Yrotation
                    JOINT LeftFinger12
                    {
                      OFFSET -0.5649 -2.3158 0.4082
                      CHANNELS 3 Zrotation Xrotation Yrotation
                      End Site
                      {
                        OFFSET -0.4919 -1.6479 0.2673
                      }
                    }
                  }
                }
                JOINT LeftFinger2
                {
                  OFFSET 0.9159 -9.2044 0.2193
                  CHANNELS 3 Zrotation Xrotation Yrotation
                  JOINT LeftFinger21
                  {
                    OFFSET 0.0117 -4.1944 -0.0248
                    CHANNELS 3 Zrotation Xrotation Yrotation
                    JOINT LeftFinger22
                    {
                      OFFSET 0.0071 -2.3249 -0.0142
                      CHANNELS 3 Zrotation Xrotation Yrotation
                      End Site
                      {
                        OFFSET -0.1475 -2.0882 0.0028
                      }
                    }
                  }
                }
                JOINT LeftFinger3
                {
                  OFFSET 0.6113 -8.7231 -2.0637
                  CHANNELS 3 Zrotation Xrotation Yrotation
                  JOINT LeftFinger31
                  {
                    OFFSET -0.1927 -3.8059 -0.2383
                    CHANNELS 3 Zrotation Xrotation Yrotation
                    JOINT LeftFinger32
                    {
                      OFFSET -0.1091 -2.1688 -0.1362
                      CHANNELS 3 Zrotation Xrotation Yrotation
                      End Site
                      {
                        OFFSET -0.2358 -1.9176 -0.0906
                      }
                    }
                  }
                }
                JOINT LeftFinger4
                {
                  OFFSET -0.6151 -8.0947 -3.5641
                  CHANNELS 3 Zrotation Xrotation Yrotation
                  JOINT LeftFinger41
                  {
                    OFFSET -0.4882 -2.341 -0.6462
                    CHANNELS 3 Zrotation Xrotation Yrotation
                    JOINT LeftFinger42
                    {
                      OFFSET -0.3575 -1.7167 -0.4742
                      CHANNELS 3 Zrotation Xrotation Yrotation
                      End Site
                      {
                        OFFSET -0.4187 -1.5237 -0.3496
                      }
                    }
                  }
                }
                JOINT LeftFinger0
                {
                  OFFSET -1.42 -1.8761 1.4223
                  CHANNELS 3 Zrotation Xrotation Yrotation
                  JOINT LeftFinger01
                  {
                    OFFSET -1.1471 -3.4929 2.6334
                    CHANNELS 3 Zrotation Xrotation Yrotation
                    JOINT LeftFinger02
                    {
                      OFFSET -0.823 -2.3 1.6571
                      CHANNELS 3 Zrotation Xrotation Yrotation
                      End Site
                      {
                        OFFSET -0.5822 -1.6914 1.1582
                      }
                    }
                  }
                }
              }
            }
          }
        }
        JOINT RightCollar
        {
          OFFSET -2.2603 21.606 7.4023
          CHANNELS 3 Zrotation Xrotation Yrotation
          JOINT RightShoulder
          {
            OFFSET -13.5187 -1.1334 -5.0155
            CHANNELS 3 Zrotation Xrotation Yrotation
            JOINT RightElbow
            {
              OFFSET 0.0994 -28.0499 -0.2431
              CHANNELS 3 Zrotation Xrotation Yrotation
              JOINT RightWrist
              {
                OFFSET -0.0679 -23.3996 -0.1402
                CHANNELS 3 Zrotation Xrotation Yrotation
                JOINT RightFinger1
                {
                  OFFSET -0.7932 -9.0691 2.5189
                  CHANNELS 3 Zrotation Xrotation Yrotation
                  JOINT RightFinger11
                  {
                    OFFSET 0.8272 -3.3923 0.5977
                    CHANNELS 3 Zrotation Xrotation Yrotation
                    JOINT RightFinger12
                    {
                      OFFSET 0.565 -2.3158 0.4082
                      CHANNELS 3 Zrotation Xrotation Yrotation
                      End Site
                      {
                        OFFSET 0.4919 -1.6479 0.2673
                      }
                    }
                  }
                }
                JOINT RightFinger2
                {
                  OFFSET -0.916 -9.2044 0.2193
                  CHANNELS 3 Zrotation Xrotation Yrotation
                  JOINT RightFinger21
                  {
                    OFFSET -0.0117 -4.1944 -0.0248
                    CHANNELS 3 Zrotation Xrotation Yrotation
                    JOINT RightFinger22
                    {
                      OFFSET -0.0071 -2.3249 -0.0142
                      CHANNELS 3 Zrotation Xrotation Yrotation
                      End Site
                      {
                        OFFSET 0.1475 -2.0882 0.0028
                      }
                    }
                  }
                }
                JOINT RightFinger3
                {
                  OFFSET -0.6113 -8.7231 -2.0637
                  CHANNELS 3 Zrotation Xrotation Yrotation
                  JOINT RightFinger31
                  {
                    OFFSET 0.1927 -3.8059 -0.2383
                    CHANNELS 3 Zrotation Xrotation Yrotation
                    JOINT RightFinger32
                    {
                      OFFSET 0.1091 -2.1688 -0.1362
                      CHANNELS 3 Zrotation Xrotation Yrotation
                      End Site
                      {
                        OFFSET 0.2358 -1.9176 -0.0906
                      }
                    }
                  }
                }
                JOINT RightFinger4
                {
                  OFFSET 0.6151 -8.0947 -3.564
                  CHANNELS 3 Zrotation Xrotation Yrotation
                  JOINT RightFinger41
                  {
                    OFFSET 0.4882 -2.341 -0.6462
                    CHANNELS 3 Zrotation Xrotation Yrotation
                    JOINT RightFinger42
                    {
                      OFFSET 0.3574 -1.7166 -0.4742
                      CHANNELS 3 Zrotation Xrotation Yrotation
                      End Site
                      {
                        OFFSET 0.4187 -1.5237 -0.3496
                      }
                    }
                  }
                }
                JOINT RightFinger0
                {
                  OFFSET 1.4199 -1.8761 1.4221
                  CHANNELS 3 Zrotation Xrotation Yrotation
                  JOINT RightFinger01
                  {
                    OFFSET 1.1472 -3.4929 2.6336
                    CHANNELS 3 Zrotation Xrotation Yrotation
                    JOINT RightFinger02
                    {
                      OFFSET 0.8229 -2.3 1.6571
                      CHANNELS 3 Zrotation Xrotation Yrotation
                      End Site
                      {
                        OFFSET 0.5822 -1.6914 1.1582
                      }
                    }
                  }
                }
              }
            }
          }
        }
      }
    }
  }
  JOINT RightHip
  {
    OFFSET -9.412 3.9771 -0.7758
    CHANNELS 3 Zrotation Xrotation Yrotation
    JOINT RightKnee
    {
      OFFSET -0.7531 -40.938 0
      CHANNELS 3 Zrotation Xrotation Yrotation
      JOINT RightAnkle
      {
        OFFSET 0 -40.1986 0
        CHANNELS 3 Zrotation Xrotation Yrotation
        JOINT RightToe
        {
          OFFSET 0 -4.4182 9.239
          CHANNELS 3 Zrotation Xrotation Yrotation
          End Site
          {
            OFFSET 0 0 6.1981
          }
        }
      }
    }
  }
  JOINT LeftHip
  {
    OFFSET 9.4119 3.9773 -0.7758
    CHANNELS 3 Zrotation Xrotation Yrotation
    JOINT LeftKnee
    {
      OFFSET 0.7532 -40.9383 0
      CHANNELS 3 Zrotation Xrotation Yrotation
      JOINT LeftAnkle
      {
        OFFSET 0 -40.1986 0
        CHANNELS 3 Zrotation Xrotation Yrotation
        JOINT LeftToe
        {
          OFFSET 0 -4.4182 9.239
          CHANNELS 3 Zrotation Xrotation Yrotation
          End Site
          {
            OFFSET 0 0 6.1981
          }
        }
      }
    }
  }
}
MOTION
Frames:	4
Frame Time:	0.0333333
39.8305 63.9345 26.8269 2.11591e-008 18.9975 -6.87666e-008 -0.23448 -0.637512 -0.201424 -0.471248 -1.27421 -0.405497 -0.471244 -1.2742 -0.405493 6.49195e-005 -26.0014 4.37125e-005 -4.23583e-007 17.9984 9.31271e-008 10.3697 18.0469 -9.06429 10.3367 5.33202 24.7208 -34.1032 5.80178 -9.13936 0.339863 -26.6105 -8.10891 -1.59028e-015 -7.95139e-016 -3.18055e-015 -4.47266e-015 -1.59028e-015 -3.18055e-015 -2.5842e-015 0 -1.59028e-015 -1.59028e-015 -7.95139e-016 -3.18055e-015 -0.0127887 0.00232073 8.52056e-005 -3.18055e-015 -7.95139e-016 1.59028e-015 -1.59028e-015 -7.95139e-016 -3.18055e-015 -0.016059 0.00299935 0.000860123 1.98785e-016 -1.59028e-015 7.95139e-016 -1.59028e-015 -7.95139e-016 -3.18055e-015 -0.0125165 0.00310612 0.00281268 -1.09332e-015 -7.95139e-016 -7.95139e-016 -1.59028e-015 -7.95139e-016 -3.18055e-015 -4.47266e-015 -1.59028e-015 -3.18055e-015 -2.5842e-015 0 -1.59028e-015 -2.79354 19.4507 -0.430035 -11.0748 6.92729 -19.3104 19.7695 3.51266 4.94466 7.38539 -21.0376 8.57919 6.43488e-007 -2.98214e-006 -6.71774e-007 -7.95139e-016 0 -0 -7.95139e-016 0 -0 6.43488e-007 -2.98214e-006 -6.71774e-007 0.0129078 0.00231606 -8.68996e-005 -2.38542e-015 0 -1.59028e-015 6.43488e-007 -2.98214e-006 -6.71774e-007 0.0163544 0.00304522 -0.000877031 -1.59028e-015 3.18055e-015 -3.18055e-015 6.43488e-007 -2.98214e-006 -6.71774e-007 0.0145933 0.00368426 -0.00326539 0 3.18055e-015 -0 6.43488e-007 -2.98214e-006 -6.71774e-007 -7.95139e-016 0 -0 -7.95139e-016 0 -0 -2.2199 -39.0867 -25.1492 -9.72906 19.6825 2.94181 11.3863 0.356636 4.95378 -3.18055e-015 -2.23914e-007 -3.18055e-015 12.2015 -35.9974 71.409 8.21804 21.567 -3.24202 -0.167448 3.2323 -31.6613 8.42414e-007 -2.59749e-007 7.26319e-008 
39.8306 64.0067 26.8235 -1.53451e-007 18.9975 -1.01888e-007 -0.234996 -0.505289 -0.201026 -0.471791 -1.00975 -0.404145 -0.471792 -1.00975 -0.404146 0.000301717 -26.001 0.000202376 6.76232e-007 17.9983 6.60535e-008 10.1555 17.6373 -8.99163 10.3367 5.33203 24.7207 -33.7648 5.75266 -8.98496 0.186784 -26.4882 -7.98705 6.95746e-016 7.95139e-016 2.38542e-015 6.95746e-016 -1.59028e-015 7.95139e-016 2.08724e-015 -7.95139e-016 7.95139e-016 6.95746e-016 7.95139e-016 2.38542e-015 -0.0128208 0.00232593 8.57496e-005 2.68359e-015 1.59028e-015 -0 6.95746e-016 7.95139e-016 2.38542e-015 -0.0160509 0.00299652 0.000857331 1.49089e-015 1.59028e-015 -0 6.95746e-016 7.95139e-016 2.38542e-015 -0.0125841 0.00312182 0.00282672 -6.69992e-006 1.48624e-006 -9.05909e-007 6.95746e-016 7.95139e-016 2.38542e-015 6.95746e-016 -1.59028e-015 7.95139e-016 2.08724e-015 -7.95139e-016 7.95139e-016 -2.48412 19.0145 -0.504365 -11.0684 6.91676 -19.3115 19.3663 3.44612 4.83324 7.54918 -20.832 8.45554 -1.66218e-007 1.62606e-006 -9.19201e-007 -2.03765e-007 1.63702e-006 -6.33478e-008 -2.78858e-007 1.63668e-006 1.64836e-006 -1.66218e-007 1.62606e-006 -9.19201e-007 0.012956 0.00232143 -8.94237e-005 5.63024e-006 2.90552e-006 3.48567e-006 -1.66218e-007 1.62606e-006 -9.19201e-007 0.0163412 0.00304065 -0.00087585 -1.00674e-006 2.90623e-006 2.28749e-006 -1.66218e-007 1.62606e-006 -9.19201e-007 0.0145459 0.00366932 -0.00326077 -9.69121e-007 1.49858e-006 1.43176e-006 -1.66218e-007 1.62606e-006 -9.19201e-007 -2.03765e-007 1.63702e-006 -6.33478e-008 -2.78858e-007 1.63668e-006 1.64836e-006 -1.86625 -38.707 -23.7493 -9.52884 19.1262 2.84708 11.538 0.475097 3.7419 -3.30575e-006 1.80723e-008 1.59554e-006 12.0009 -35.6782 71.4287 7.88752 21.1049 -3.11287 0.00974602 3.45866 -31.8465 8.23289e-009 -4.90968e-009 -2.92222e-006 
39.8309 64.0788 26.8201 4.05612e-008 18.9975 -1.02667e-007 -0.235439 -0.372921 -0.200563 -0.472203 -0.745054 -0.402674 -0.472203 -0.745052 -0.402673 7.37434e-005 -26.0014 4.93748e-005 6.50194e-007 17.9983 2.35313e-007 9.94208 17.2267 -8.9209 10.3367 5.33203 24.7207 -33.4258 5.7032 -8.8334 0.0338737 -26.3661 -7.86467 2.08724e-015 0 7.95139e-016 5.31132e-008 8.49439e-007 -4.20618e-007 -1.2921e-015 4.77083e-015 -0 2.08724e-015 0 7.95139e-016 -0.0128206 0.00232576 8.63746e-005 -3.08116e-015 2.38542e-015 7.95139e-016 2.08724e-015 0 7.95139e-016 -0.0160883 0.00300336 0.000860504 -7.30517e-007 7.28129e-008 -9.61146e-007 2.08724e-015 0 7.95139e-016 -0.0126059 0.00313024 0.00283373 -2.98177e-015 -1.59028e-015 -7.95139e-016 2.08724e-015 0 7.95139e-016 5.31132e-008 8.49439e-007 -4.20618e-007 -1.2921e-015 4.77083e-015 -0 -2.17635 18.5771 -0.576325 -11.062 6.90628 -19.3125 18.9625 3.37923 4.72461 7.71316 -20.6268 8.33135 -1.59028e-015 0 -3.18055e-015 -1.59028e-015 3.18055e-015 -3.18055e-015 -2.38542e-015 -3.18055e-015 -1.59028e-015 -1.59028e-015 0 -3.18055e-015 0.0129512 0.00231426 -8.43046e-005 7.95139e-016 -3.18055e-015 -3.18055e-015 -1.59028e-015 0 -3.18055e-015 0.0163554 0.00303629 -0.000873741 1.76556e-031 -6.36111e-015 1.59028e-015 -1.59028e-015 0 -3.18055e-015 0.0145918 0.00368136 -0.00326616 -1.59028e-015 6.36111e-015 -4.77083e-015 -1.59028e-015 0 -3.18055e-015 -1.59028e-015 3.18055e-015 -3.18055e-015 -2.38542e-015 -3.18055e-015 -1.59028e-015 -1.52042 -38.314 -22.3577 -9.33707 18.5591 2.75644 11.6967 0.591598 2.52951 8.43771e-007 5.71163e-008 7.43021e-009 11.7968 -35.3622 71.4482 7.56705 20.6378 -2.9892 0.184024 3.68639 -32.0321 8.42424e-007 2.38929e-007 7.4471e-008 
39.8312 64.151 26.8167 1.43727e-007 18.9975 -1.61527e-007 -0.235893 -0.240645 -0.200108 -0.472625 -0.480507 -0.401204 -0.472632 -0.480502 -0.40121 -8.63136e-005 -26.0016 -5.76558e-005 1.57479e-007 17.9984 -3.8329e-008 9.72971 16.8162 -8.85192 10.3367 5.33202 24.7207 -33.086 5.65349 -8.68457 -0.119172 -26.2443 -7.7419 1.39149e-015 1.59028e-015 -0 1.59028e-015 1.59028e-015 7.95139e-016 1.78906e-015 0 7.95139e-016 1.39149e-015 1.59028e-015 -0 -0.0128255 0.00232578 8.52768e-005 2.18663e-015 3.18055e-015 2.38542e-015 1.39149e-015 1.59028e-015 -0 -0.016039 0.00299057 0.000856247 -2.98177e-015 0 1.59028e-015 1.39149e-015 1.59028e-015 -0 -0.0125129 0.0031058 0.0028112 -1.39149e-015 4.77083e-015 -0 1.39149e-015 1.59028e-015 -0 1.59028e-015 1.59028e-015 7.95139e-016 1.78906e-015 0 7.95139e-016 -1.86995 18.1398 -0.645576 -11.0556 6.89574 -19.3135 18.558 3.31212 4.61865 7.8773 -20.4219 8.20664 7.95139e-016 -3.18055e-015 4.77083e-015 -7.95139e-016 -3.18055e-015 1.59028e-015 7.95139e-016 3.18055e-015 -0 7.95139e-016 -3.18055e-015 4.77083e-015 0.0129284 0.00231284 -8.84543e-005 1.76556e-031 -3.18055e-015 3.18055e-015 7.95139e-016 -3.18055e-015 4.77083e-015 0.0163377 0.00303661 -0.000877598 7.95139e-016 3.18055e-015 3.18055e-015 7.95139e-016 -3.18055e-015 4.77083e-015 0.0145569 0.00366889 -0.00325455 -7.95139e-016 0 1.59028e-015 7.95139e-016 -3.18055e-015 4.77083e-015 -7.95139e-016 -3.18055e-015 1.59028e-015 7.95139e-016 3.18055e-015 -0 -1.1805 -37.9251 -20.9732 -9.16269 17.9961 2.67195 11.8624 0.706456 1.3169 8.43719e-007 5.7015e-008 8.44858e-009 11.5893 -35.0495 71.4673 7.25636 20.1662 -2.87075 0.355581 3.91533 -32.218 1.70444e-008 2.39328e-007 -2.92144e-006 
